<?xml version="1.0" standalone="no"?>
<!DOCTYPE svg PUBLIC "-//W3C//DTD SVG 20010904//EN"
 "http://www.w3.org/TR/2001/REC-SVG-20010904/DTD/svg10.dtd">
<svg version="1.0" xmlns="http://www.w3.org/2000/svg"
 width="280.000000pt" height="280.000000pt" viewBox="0 0 280.000000 280.000000"
 preserveAspectRatio="xMidYMid meet">
<metadata>
Created by potrace 1.14, written by Peter Selinger 2001-2017
</metadata>
<g transform="translate(0.000000,280.000000) scale(0.100000,-0.100000)"
fill="#000000" stroke="none">
<path d="M1190 2739 c12 -23 20 -42 18 -43 -2 -2 -17 -8 -35 -15 -18 -8 -31
-20 -31 -29 0 -10 -3 -33 -7 -52 -4 -19 -8 -46 -10 -60 -2 -14 -6 -41 -10 -60
-15 -72 -14 -75 33 -74 23 0 42 -2 42 -5 0 -3 12 -7 28 -7 15 -1 37 -4 49 -7
19 -5 22 0 33 56 6 34 12 73 14 87 1 14 5 30 7 35 3 6 5 21 5 35 -1 26 28 60
51 60 32 0 6 19 -92 68 -58 28 -108 52 -110 52 -3 0 4 -18 15 -41z"/>
<path d="M1650 2761 c0 -6 4 -12 8 -15 5 -3 5 -29 2 -58 -10 -75 -11 -71 53
-197 54 -104 66 -136 70 -183 1 -10 8 -19 17 -20 8 0 22 -2 30 -3 18 -2 70 44
70 62 0 15 -78 147 -103 174 -19 20 -100 166 -103 185 -2 13 -34 64 -40 64 -2
0 -4 -4 -4 -9z"/>
<path d="M795 2722 c-2 -3 11 -17 29 -31 29 -23 32 -30 23 -47 -5 -10 -16 -22
-23 -27 -10 -5 -7 -21 11 -67 13 -33 23 -62 23 -63 -3 -7 35 -124 44 -134 7
-8 23 -5 64 13 30 13 56 24 59 24 3 0 11 0 18 0 35 1 38 15 16 81 -11 35 -22
71 -24 79 -2 8 -12 38 -22 65 -19 49 -19 51 -1 69 32 34 22 41 -49 38 -38 -1
-72 -3 -78 -3 -5 0 -27 1 -48 3 -20 3 -39 2 -42 0z"/>
<path d="M1450 2682 c0 -5 3 -12 7 -15 10 -11 13 -56 3 -62 -4 -3 -19 -6 -33
-7 -19 -2 -30 -13 -47 -48 -12 -25 -22 -46 -22 -47 0 -1 -13 -28 -29 -60 -28
-55 -29 -59 -12 -71 10 -7 28 -15 41 -19 12 -3 22 -9 22 -14 0 -5 7 -9 15 -9
18 0 125 -107 145 -146 8 -16 19 -32 25 -36 11 -8 46 28 90 92 17 24 47 61 68
82 l37 38 -41 81 c-45 90 -54 94 -58 23 -1 -23 -4 -25 -29 -19 -21 4 -32 0
-47 -17 -46 -54 -92 -114 -102 -132 -6 -10 -13 -15 -16 -10 -3 5 11 43 30 84
20 41 37 77 37 80 5 25 30 69 37 64 5 -3 9 0 9 5 0 6 3 10 8 10 47 -8 41 6
-39 81 -81 76 -99 89 -99 72z"/>
<path d="M595 2544 c-49 -24 -90 -50 -90 -57 0 -6 15 -13 33 -15 33 -3 33 -4
27 -40 -6 -36 -3 -41 84 -132 49 -52 88 -96 87 -98 -2 -1 -56 16 -120 39 -96
35 -120 47 -131 69 -8 15 -11 31 -7 34 3 4 -1 4 -11 0 -9 -3 -17 -10 -17 -14
0 -5 -7 -16 -16 -25 -9 -8 -36 -43 -60 -75 -43 -59 -56 -89 -31 -73 6 4 17 8
22 9 6 1 17 5 26 8 12 5 19 -3 28 -32 12 -36 17 -39 99 -67 48 -16 95 -34 106
-41 10 -7 25 -10 32 -7 8 3 14 0 14 -6 0 -6 7 -8 15 -5 8 3 14 9 13 12 -5 18
16 91 39 135 28 55 84 121 125 146 l27 17 -87 90 c-117 121 -114 117 -102 148
13 36 3 34 -105 -20z"/>
<path d="M2058 2506 c-6 -32 -3 -81 9 -126 7 -28 18 -40 53 -57 24 -12 45 -21
46 -20 4 4 -45 147 -61 176 -7 15 -20 33 -28 39 -12 10 -15 8 -19 -12z"/>
<path d="M1915 2340 c4 -19 -43 -69 -68 -71 -7 -1 -22 -3 -34 -4 -12 -1 -30 6
-40 17 -16 18 -17 18 -30 -4 -7 -13 -12 -33 -13 -45 0 -13 -3 -23 -8 -23 -4 0
-24 -14 -44 -30 l-37 -31 27 -57 c15 -31 30 -59 33 -62 3 -3 18 -27 33 -55 34
-64 79 -114 138 -154 104 -70 188 -187 192 -268 1 -25 7 -32 32 -37 11 -3 26
-7 35 -11 28 -11 41 44 18 76 -18 26 -18 26 13 54 21 19 28 30 19 33 -7 2 -16
1 -20 -4 -3 -5 -11 -10 -18 -11 -11 -3 -11 38 1 137 7 56 -43 121 -88 113 -21
-4 -25 -2 -20 10 3 9 12 18 21 21 11 5 14 2 9 -10 -5 -14 -4 -15 8 -5 11 9 15
9 19 -1 4 -9 12 -6 26 11 12 12 19 27 16 31 -3 5 9 7 27 6 26 -2 32 -7 30 -22
-2 -10 -9 -22 -15 -26 -7 -5 -3 -8 10 -8 12 0 23 5 25 12 2 6 10 8 17 4 9 -6
9 -11 0 -22 -17 -20 -6 -26 25 -15 30 12 33 5 9 -21 -15 -17 -15 -18 5 -18 12
0 22 5 22 10 0 14 26 12 39 -3 8 -10 7 -19 -4 -33 -19 -25 -19 -35 0 -28 8 4
13 10 10 14 -7 11 22 20 43 13 9 -3 14 -3 10 1 -3 4 1 16 10 27 17 20 38 27
27 9 -8 -13 1 -13 26 0 21 12 26 1 7 -18 -9 -9 -8 -12 4 -12 8 0 21 6 28 14 6
8 18 12 26 9 13 -5 12 -8 -2 -24 -21 -23 -12 -24 20 -4 13 9 28 15 32 14 31
-5 36 2 30 41 -3 22 -14 56 -23 75 -15 31 -21 35 -43 30 -21 -5 -32 1 -57 28
-19 21 -48 39 -78 47 -49 14 -86 55 -100 110 -10 42 -26 55 -147 118 -94 50
-128 63 -177 67 -55 5 -60 4 -56 -15z m118 -142 c17 -21 24 -24 36 -15 11 9
19 5 42 -22 31 -38 30 -51 -7 -51 -15 0 -24 6 -24 16 0 9 -6 14 -13 11 -8 -3
-18 -2 -23 1 -13 9 -74 110 -74 122 0 6 -4 10 -10 10 -5 0 -10 6 -10 13 1 11
28 -17 83 -85z m97 -223 c0 -1 -9 -5 -20 -8 -11 -3 -20 0 -20 6 0 6 -14 -3
-31 -21 -27 -27 -35 -43 -38 -74 -2 -19 -19 -5 -26 19 -7 31 -85 153 -97 153
-4 0 -8 6 -8 13 1 17 76 -70 91 -105 l12 -29 29 35 c16 20 34 36 41 36 6 0 1
-9 -12 -21 -12 -12 -20 -24 -16 -27 6 -6 39 37 41 53 1 15 -38 55 -47 49 -5
-3 -6 2 -3 11 5 12 18 3 55 -36 27 -28 49 -53 49 -54z m-40 -26 c0 -8 5 -7 15
1 9 7 18 11 20 8 10 -10 -23 -28 -39 -22 -18 7 -22 24 -6 24 6 0 10 -5 10 -11z
m-60 -115 c0 -8 5 -14 11 -14 5 0 7 -5 3 -11 -4 -8 -12 -3 -20 12 -16 29 -18
42 -4 34 6 -3 10 -13 10 -21z m37 -38 c-17 -25 -8 -48 23 -59 10 -3 7 -6 -8
-6 -31 -1 -45 36 -24 66 8 13 17 23 19 23 3 0 -2 -11 -10 -24z m58 -46 c3 -5
1 -10 -4 -10 -6 0 -11 5 -11 10 0 6 2 10 4 10 3 0 8 -4 11 -10z m-5 -30 c0 -5
-5 -10 -11 -10 -5 0 -7 5 -4 10 3 6 8 10 11 10 2 0 4 -4 4 -10z m-12 -45 c9
-19 9 -23 -2 -19 -15 6 -29 44 -17 44 4 0 13 -11 19 -25z"/>
<path d="M2012 1938 c-7 -7 -12 -16 -12 -21 0 -5 7 -1 16 8 9 9 14 18 12 20
-2 3 -10 -1 -16 -7z"/>
<path d="M355 1968 c-4 -29 -9 -62 -11 -73 -10 -48 -15 -115 -9 -115 4 0 16
11 27 25 24 31 38 31 62 1 10 -14 23 -23 29 -21 7 2 35 6 62 9 28 4 66 9 85
12 62 10 100 11 100 2 0 -4 -3 -8 -7 -8 -5 0 -35 -25 -68 -56 -33 -30 -72 -67
-87 -80 -22 -20 -35 -24 -63 -20 -32 5 -34 5 -26 -17 27 -69 99 -208 103 -201
3 5 8 26 12 47 7 40 11 42 49 28 29 -11 26 -14 136 88 84 77 108 111 80 111
-17 0 -88 81 -109 125 -21 44 -28 78 -29 141 l-1 41 -37 -3 c-21 -1 -51 -5
-68 -8 -16 -2 -52 -7 -80 -11 -27 -4 -59 -9 -70 -11 -11 -2 -31 7 -46 22 l-27
25 -7 -53z"/>
<path d="M813 1583 c-31 -49 -55 -88 -53 -88 3 0 -6 -12 -19 -27 -15 -17 -31
-25 -44 -23 -11 3 -24 2 -28 -1 -8 -4 51 -82 110 -145 12 -13 21 -26 21 -31 0
-4 5 -8 10 -8 6 0 9 19 8 43 -3 42 -3 42 32 43 36 0 42 7 130 144 5 8 21 32
35 53 14 21 25 39 25 41 0 2 -34 19 -75 37 -41 18 -75 36 -75 41 0 26 -27 -2
-77 -79z"/>
<path d="M2150 1612 c0 -14 27 -45 41 -48 8 -1 19 -3 24 -4 6 -1 19 -2 30 -1
14 1 8 8 -22 21 -23 11 -45 25 -48 30 -7 12 -25 13 -25 2z"/>
<path d="M1055 1553 c-3 -15 -19 -55 -34 -88 -15 -33 -31 -71 -34 -85 -9 -37
-30 -61 -54 -63 -23 -1 -42 -27 -20 -27 7 0 26 -12 42 -28 17 -15 53 -46 82
-70 l52 -43 -2 30 c-1 17 -5 31 -9 31 -3 0 -5 8 -4 18 2 11 12 17 27 17 23 0
59 32 59 53 0 6 9 31 20 56 11 26 20 48 20 51 0 3 12 28 25 57 26 57 25 68 -9
68 -12 0 -26 4 -31 8 -6 5 -30 14 -54 21 -23 7 -49 15 -56 17 -7 3 -15 -6 -20
-23z"/>
<path d="M1285 1458 c-10 -24 -19 -45 -19 -48 -1 -3 -14 -36 -30 -75 -29 -68
-52 -105 -65 -103 -3 0 -14 0 -24 -1 -17 -1 -17 -2 -2 -18 34 -34 169 -142
173 -139 2 2 -1 21 -7 41 -9 33 -8 37 12 44 12 5 25 7 30 4 4 -2 7 1 7 8 0 7
3 9 6 6 10 -10 112 247 103 257 -5 6 -19 11 -31 13 -12 2 -25 7 -28 11 -3 4
-23 13 -45 21 -22 8 -45 16 -51 18 -6 2 -20 -15 -29 -39z"/>
<path d="M200 1467 c0 -1 9 -34 21 -72 11 -39 22 -77 24 -85 1 -8 10 -42 19
-75 9 -33 18 -67 21 -75 2 -8 8 -28 14 -43 6 -16 9 -33 5 -38 -3 -5 -1 -9 4
-9 5 0 9 -6 10 -12 0 -7 3 -24 7 -38 20 -79 19 -87 -14 -106 -17 -10 -31 -23
-31 -28 0 -5 -3 -7 -6 -3 -3 3 -15 -2 -25 -12 -21 -19 -22 -15 50 -186 19 -43
39 -91 51 -122 7 -18 15 -33 19 -33 7 0 49 35 113 95 l47 45 -49 85 -49 86 24
11 c14 6 25 15 25 20 0 4 7 8 15 8 8 0 19 9 25 20 7 14 7 20 0 20 -5 0 -10 5
-10 11 0 6 -31 64 -70 129 -38 65 -84 144 -102 176 -17 33 -44 79 -60 104 -15
25 -37 64 -49 88 -18 35 -29 51 -29 39z"/>
<path d="M1573 1364 c-7 -7 -13 -16 -13 -18 0 -3 -7 -14 -15 -23 -8 -10 -39
-52 -69 -93 -45 -60 -61 -74 -83 -75 -17 0 -27 -6 -25 -14 2 -11 79 -119 93
-131 3 -3 12 -16 18 -28 16 -30 25 -21 26 26 0 36 1 37 35 37 29 0 40 7 64 40
16 22 53 72 83 111 29 40 53 74 53 77 0 6 -100 76 -135 94 -15 8 -23 7 -32 -3z"/>
<path d="M1800 1128 c-25 -18 -46 -36 -48 -40 -2 -4 -8 -8 -14 -8 -6 0 -33
-16 -61 -36 -46 -34 -54 -36 -81 -26 -16 7 -31 10 -33 9 -2 -3 14 -70 32 -127
2 -8 9 -32 14 -53 13 -55 19 -56 37 -9 17 41 17 41 45 27 16 -9 35 -12 46 -7
39 15 213 138 213 149 0 25 -80 153 -95 152 -5 0 -30 -14 -55 -31z"/>
<path d="M1645 758 c-15 -51 -32 -98 -37 -105 -6 -7 -4 -14 3 -18 6 -4 14 -3
18 2 10 16 51 34 61 28 13 -8 13 -35 0 -35 -10 0 -170 -157 -170 -167 0 -2 19
-3 43 -1 41 3 42 2 47 -30 5 -30 13 -38 100 -83 52 -28 103 -52 112 -54 11 -2
30 17 58 61 23 35 43 71 44 79 0 10 -21 28 -51 45 -29 16 -53 26 -53 22 0 -4
-4 -2 -8 4 -4 6 -30 21 -57 33 -54 24 -83 62 -60 81 6 5 15 7 19 3 4 -4 65 -8
136 -9 124 -2 130 -1 136 20 9 27 13 166 5 167 -3 1 -66 2 -138 3 -125 1 -134
3 -148 24 -9 12 -20 22 -24 22 -4 0 -20 -42 -36 -92z"/>
<path d="M649 695 c-1 -5 -1 -13 0 -17 0 -5 -3 -8 -9 -8 -5 0 -9 -3 -9 -7 5
-33 -2 -41 -28 -34 -40 11 -49 6 -137 -81 l-81 -79 25 -47 c14 -26 30 -53 37
-60 7 -8 18 -22 23 -33 6 -10 14 -19 19 -19 4 0 50 41 101 92 88 87 95 92 131
89 l38 -2 -37 73 c-21 40 -45 89 -54 108 -9 19 -18 31 -19 25z"/>
<path d="M787 516 c-3 -8 -3 -28 -1 -45 5 -29 4 -30 -31 -29 -39 1 -43 -2
-102 -97 -20 -33 -40 -62 -43 -65 -13 -9 -41 -70 -33 -70 5 0 24 -14 43 -30
19 -17 47 -36 63 -43 15 -6 27 -15 27 -19 0 -25 26 5 86 100 37 59 73 110 79
114 5 4 22 8 38 8 15 0 27 3 27 8 0 4 -18 26 -40 50 -21 23 -36 42 -32 42 4 0
2 4 -5 8 -6 4 -25 24 -41 45 -21 26 -31 33 -35 23z"/>
<path d="M1540 433 c-8 -2 -24 -8 -35 -13 -11 -5 -50 -19 -87 -31 -38 -12 -68
-25 -68 -29 0 -7 57 -24 73 -21 4 0 1 -14 -7 -33 -16 -39 -17 -38 63 -150 61
-85 58 -84 143 -38 86 45 86 50 28 128 -28 38 -61 82 -74 99 -23 27 -23 32
-11 62 14 34 10 38 -25 26z"/>
<path d="M950 407 c0 -3 7 -18 15 -33 21 -41 19 -51 -13 -62 -26 -9 -29 -16
-46 -113 -31 -172 -35 -159 58 -178 105 -20 101 -22 116 67 8 42 15 86 16 97
9 64 12 77 23 88 7 7 16 13 22 13 5 1 15 2 22 3 19 3 -20 29 -113 74 -106 52
-100 50 -100 44z"/>
<path d="M1170 360 c0 -3 11 -22 25 -40 l26 -35 -29 -14 -30 -13 5 -87 c2 -47
6 -102 8 -121 2 -19 4 -38 4 -42 1 -7 42 -5 139 6 18 2 36 7 40 11 8 8 10 85
2 85 -3 0 -5 37 -5 83 0 75 2 83 23 92 12 5 22 13 22 16 0 8 -27 20 -60 25
-14 3 -58 13 -97 23 -40 10 -73 15 -73 11z"/>
</g>
</svg>
